<svg xmlns="http://www.w3.org/2000/svg" width="20" height="20" viewBox="0 0 20 20">
  <defs>
    <style>
      .cls-1 {
        fill: #29282d;
        fill-rule: evenodd;
      }
    </style>
  </defs>
  <path id="heart_icon" class="cls-1" d="M1498.06,49.588a6.683,6.683,0,0,0-4.17-4.371c-1.71-.6-3.75,0-5.58,1.611-1.83-1.569-3.87-2.122-5.58-1.569a6.883,6.883,0,0,0-4.17,4.371c-0.47,1.57-.51,4.116,1.96,7.215,1.1,1.4,2.81,3.4,4.21,4.965,2.69,3.014,3.11,3.182,3.49,3.182h0.18c0.38,0,.76-0.168,3.44-3.224,1.41-1.614,3.11-3.609,4.22-4.966C1498.53,53.7,1498.53,51.158,1498.06,49.588Zm-3.28,6.2c-1.96,2.462-5.32,6.324-6.47,7.385-1.15-1.061-4.51-4.924-6.47-7.385-1.62-1.994-2.22-3.946-1.71-5.687a5.03,5.03,0,0,1,3.11-3.225c1.24-.467,2.9.169,4.43,1.655a0.854,0.854,0,0,0,1.07.126,0.423,0.423,0,0,0,.21-0.169c1.53-1.443,3.19-2.079,4.43-1.655a5.216,5.216,0,0,1,3.11,3.268C1497,51.794,1496.4,53.789,1494.78,55.783Z" transform="translate(-1478.31 -45)"/>
</svg>
