<?xml version="1.0" encoding="UTF-8"?>
<svg xmlns="http://www.w3.org/2000/svg" xmlns:xlink="http://www.w3.org/1999/xlink" width="16px" height="18px" viewBox="0 0 16 18" version="1.1">
<g id="surface1">
<path  d="M 3.582031 15.75 L 0.265625 15.75 L 0.265625 5.234375 L 3.582031 5.234375 Z M 1.921875 3.800781 C 0.859375 3.800781 0 2.9375 0 1.890625 C 0 0.847656 0.859375 0 1.921875 0 C 2.980469 0 3.84375 0.847656 3.84375 1.890625 C 3.84375 2.9375 2.980469 3.800781 1.921875 3.800781 Z M 15.996094 15.75 L 12.6875 15.75 L 12.6875 10.632812 C 12.6875 9.410156 12.660156 7.847656 10.960938 7.847656 C 9.238281 7.847656 8.972656 9.171875 8.972656 10.542969 L 8.972656 15.75 L 5.660156 15.75 L 5.660156 5.234375 L 8.839844 5.234375 L 8.839844 6.667969 L 8.886719 6.667969 C 9.328125 5.84375 10.410156 4.972656 12.027344 4.972656 C 15.382812 4.972656 16 7.148438 16 9.972656 L 16 15.75 Z M 15.996094 15.75 "/>
</g>
</svg>
