
<svg xmlns="http://www.w3.org/2000/svg" xmlns:xlink="http://www.w3.org/1999/xlink" width="14px" height="19px" viewBox="0 0 14 18" version="1.1">
<g >
<path  d="M 7.4375 0.226562 C 3.695312 0.226562 0 2.632812 0 6.523438 C 0 9 1.445312 10.40625 2.320312 10.40625 C 2.679688 10.40625 2.886719 9.4375 2.886719 9.160156 C 2.886719 8.835938 2.023438 8.140625 2.023438 6.777344 C 2.023438 3.953125 4.253906 1.949219 7.140625 1.949219 C 9.625 1.949219 11.460938 3.308594 11.460938 5.808594 C 11.460938 7.675781 10.6875 11.175781 8.171875 11.175781 C 7.261719 11.175781 6.484375 10.542969 6.484375 9.636719 C 6.484375 8.308594 7.449219 7.019531 7.449219 5.648438 C 7.449219 3.320312 4.023438 3.742188 4.023438 6.554688 C 4.023438 7.148438 4.101562 7.800781 4.375 8.339844 C 3.871094 10.425781 2.84375 13.539062 2.84375 15.691406 C 2.84375 16.355469 2.941406 17.007812 3.007812 17.671875 C 3.132812 17.804688 3.070312 17.792969 3.257812 17.726562 C 5.097656 15.300781 5.03125 14.824219 5.863281 11.652344 C 6.3125 12.472656 7.46875 12.917969 8.390625 12.917969 C 12.261719 12.917969 14 9.277344 14 5.996094 C 14 2.507812 10.871094 0.226562 7.4375 0.226562 Z M 7.4375 0.226562 "/>
</g>
</svg>
