<svg version="1.2" baseProfile="tiny-ps" xmlns="http://www.w3.org/2000/svg" viewBox="0 0 20 20" width="20" height="20">
	
<path  style="fill: #ffffff" d="M19.89 19.29L19.3 19.87C19.14 20.04 18.88 20.04 18.71 19.87L12.9 14.07C11.54 15.17 9.81 15.83 7.93 15.83C3.57 15.83 0.01 12.28 0.01 7.91C0.01 3.55 3.57 0 7.93 0C12.3 0 15.85 3.55 15.85 7.91C15.85 9.8 15.18 11.53 14.08 12.89L19.89 18.7C20.05 18.86 20.05 19.12 19.89 19.29ZM7.93 14.16C4.48 14.16 1.68 11.36 1.68 7.91C1.68 4.47 4.48 1.66 7.93 1.66C11.38 1.66 14.18 4.47 14.18 7.91C14.18 11.36 11.38 14.16 7.93 14.16Z" />
				
</svg>